# xmcd CD database file
#
# Track frame offsets:
#	150
#	37915
#	57692
#	87270
#	115911
#	151831
#	182377
#	212645
#	246192
#	273144
#	299963
#	319397
#
# Disc length: 4302 seconds
#
# Revision: 0
# Processed by: cddbd v1.4PL0 Copyright (c) Steve Scherf et al.
# Submitted via: CDex 1.51
#
DISCID=ae10cc0c
DTITLE=Damon Brown - A Bigger Picture
DYEAR=2001
DGENRE=Jazz
TTITLE0=Busted Back Blues
TTITLE1=Botswana
TTITLE2=A Bigger Picture
TTITLE3=Blues for Bro
TTITLE4=God Bless the Child
TTITLE5=Jousting in 3
TTITLE6=Song for Rico
TTITLE7=Dis Functional Groove
TTITLE8=Yeah
TTITLE9=Pete Parkers Revenge
TTITLE10=Christmas Ska
TTITLE11=Eezer
EXTD=YEAR: 2001
EXTT0=
EXTT1=
EXTT2=
EXTT3=
EXTT4=
EXTT5=
EXTT6=
EXTT7=
EXTT8=
EXTT9=
EXTT10=
EXTT11=
PLAYORDER=
